<svg width="375" height="342" viewBox="0 0 375 342" fill="none" xmlns="http://www.w3.org/2000/svg">
<mask id="mask0_1394_1858" style="mask-type:alpha" maskUnits="userSpaceOnUse" x="0" y="0" width="375" height="342">
<rect width="375" height="342" fill="#D9D9D9"/>
</mask>
<g mask="url(#mask0_1394_1858)">
<ellipse cx="171.134" cy="323.974" rx="259.087" ry="259.154" fill="url(#paint0_linear_1394_1858)"/>
<g filter="url(#filter0_f_1394_1858)">
<path d="M171.134 583.578C314.473 583.578 430.671 467.35 430.671 323.974C430.671 180.599 314.473 64.3701 171.134 64.3701C27.7954 64.3701 -88.4033 180.599 -88.4033 323.974C-88.4033 467.35 27.7954 583.578 171.134 583.578Z" stroke="#C4D8F7" stroke-width="0.900335"/>
</g>
<g filter="url(#filter1_df_1394_1858)">
<path d="M171.134 584.929C315.219 584.929 432.022 468.095 432.022 323.974C432.022 179.853 315.219 63.0196 171.134 63.0196C27.0492 63.0196 -89.7538 179.853 -89.7538 323.974C-89.7538 468.095 27.0492 584.929 171.134 584.929Z" stroke="white" stroke-width="3.60134" shape-rendering="crispEdges"/>
</g>
</g>
<defs>
<filter id="filter0_f_1394_1858" x="-95.1239" y="57.6476" width="532.517" height="532.654" filterUnits="userSpaceOnUse" color-interpolation-filters="sRGB">
<feFlood flood-opacity="0" result="BackgroundImageFix"/>
<feBlend mode="normal" in="SourceGraphic" in2="BackgroundImageFix" result="shape"/>
<feGaussianBlur stdDeviation="3.13617" result="effect1_foregroundBlur_1394_1858"/>
</filter>
<filter id="filter1_df_1394_1858" x="-122.766" y="7.79886" width="588.402" height="599.939" filterUnits="userSpaceOnUse" color-interpolation-filters="sRGB">
<feFlood flood-opacity="0" result="BackgroundImageFix"/>
<feColorMatrix in="SourceAlpha" type="matrix" values="0 0 0 0 0 0 0 0 0 0 0 0 0 0 0 0 0 0 127 0" result="hardAlpha"/>
<feMorphology radius="12.0045" operator="dilate" in="SourceAlpha" result="effect1_dropShadow_1394_1858"/>
<feOffset dx="0.300112" dy="-21.9082"/>
<feGaussianBlur stdDeviation="9.75363"/>
<feComposite in2="hardAlpha" operator="out"/>
<feColorMatrix type="matrix" values="0 0 0 0 0.492733 0 0 0 0 0.611861 0 0 0 0 0.91819 0 0 0 0.12 0"/>
<feBlend mode="normal" in2="BackgroundImageFix" result="effect1_dropShadow_1394_1858"/>
<feBlend mode="normal" in="SourceGraphic" in2="effect1_dropShadow_1394_1858" result="shape"/>
<feGaussianBlur stdDeviation="10.5039" result="effect2_foregroundBlur_1394_1858"/>
</filter>
<linearGradient id="paint0_linear_1394_1858" x1="171.134" y1="64.8203" x2="171.134" y2="164.599" gradientUnits="userSpaceOnUse">
<stop stop-color="#187AC9"/>
<stop offset="0.208008" stop-color="#183F5F"/>
<stop offset="0.485925" stop-color="#101E2A"/>
<stop offset="0.72492" stop-color="#10181E"/>
<stop offset="1" stop-color="#121212"/>
</linearGradient>
</defs>
</svg>
