<svg width="244" height="158" viewBox="0 0 244 158" fill="none" xmlns="http://www.w3.org/2000/svg">
<g clip-path="url(#clip0_1394_3041)">
<path fill-rule="evenodd" clip-rule="evenodd" d="M0 9.24323C0 4.13833 4.13834 0 9.24324 0L233.854 0C238.959 0 243.097 4.13834 243.097 9.24324V147.892C243.097 152.997 238.959 157.135 233.854 157.135H9.24324C4.13834 157.135 0 152.997 0 147.892L0 9.24323Z" fill="#121212"/>
<path d="M61.3663 124.691L64.9743 117.554V117.491H60.8148V116.625H65.9826V117.538L62.3904 124.691H61.3663ZM69.956 124.802C69.6251 124.796 69.2942 124.733 68.9634 124.613C68.6325 124.492 68.3305 124.288 68.0574 124.002C67.7843 123.713 67.5651 123.323 67.3996 122.832C67.2342 122.339 67.1515 121.719 67.1515 120.973C67.1515 120.259 67.2185 119.626 67.3524 119.075C67.4863 118.52 67.6806 118.054 67.9353 117.676C68.19 117.295 68.4973 117.007 68.857 116.81C69.2194 116.613 69.6277 116.514 70.082 116.514C70.5337 116.514 70.9354 116.605 71.2873 116.786C71.6418 116.965 71.9307 117.214 72.1539 117.534C72.3771 117.855 72.5215 118.224 72.5872 118.641H71.6261C71.5368 118.279 71.3635 117.978 71.1061 117.739C70.8488 117.5 70.5074 117.381 70.082 117.381C69.4571 117.381 68.9647 117.653 68.6049 118.196C68.2478 118.74 68.0679 119.503 68.0653 120.485H68.1283C68.2754 120.261 68.45 120.071 68.6522 119.914C68.857 119.753 69.0829 119.63 69.3297 119.543C69.5765 119.457 69.8378 119.413 70.1135 119.413C70.5757 119.413 70.9985 119.529 71.3819 119.76C71.7652 119.988 72.0725 120.305 72.3036 120.709C72.5346 121.111 72.6502 121.572 72.6502 122.092C72.6502 122.591 72.5386 123.048 72.3154 123.462C72.0922 123.875 71.7784 124.203 71.374 124.447C70.9722 124.689 70.4995 124.807 69.956 124.802ZM69.956 123.935C70.2868 123.935 70.5836 123.852 70.8462 123.687C71.1114 123.522 71.3201 123.3 71.4724 123.021C71.6274 122.743 71.7048 122.433 71.7048 122.092C71.7048 121.758 71.63 121.455 71.4803 121.182C71.3333 120.906 71.1298 120.687 70.8698 120.524C70.6125 120.361 70.3184 120.28 69.9875 120.28C69.738 120.28 69.5056 120.33 69.2903 120.43C69.075 120.527 68.8859 120.661 68.7231 120.831C68.5629 121.002 68.4369 121.198 68.345 121.418C68.2531 121.636 68.2071 121.866 68.2071 122.107C68.2071 122.428 68.282 122.727 68.4316 123.006C68.5839 123.284 68.7914 123.508 69.054 123.679C69.3192 123.85 69.6199 123.935 69.956 123.935ZM78.3113 123.179V122.753C78.3113 122.459 78.3717 122.19 78.4925 121.946C78.6159 121.699 78.7945 121.502 79.0282 121.355C79.2645 121.205 79.5508 121.131 79.8869 121.131C80.2283 121.131 80.5145 121.205 80.7456 121.355C80.9766 121.502 81.1513 121.699 81.2694 121.946C81.3876 122.19 81.4467 122.459 81.4467 122.753V123.179C81.4467 123.473 81.3863 123.743 81.2655 123.99C81.1473 124.234 80.9714 124.431 80.7377 124.581C80.5066 124.728 80.223 124.802 79.8869 124.802C79.5455 124.802 79.258 124.728 79.0243 124.581C78.7906 124.431 78.6133 124.234 78.4925 123.99C78.3717 123.743 78.3113 123.473 78.3113 123.179ZM79.1149 122.753V123.179C79.1149 123.423 79.1726 123.642 79.2882 123.837C79.4037 124.028 79.6033 124.124 79.8869 124.124C80.1626 124.124 80.3569 124.028 80.4698 123.837C80.5854 123.642 80.6432 123.423 80.6432 123.179V122.753C80.6432 122.509 80.588 122.291 80.4777 122.1C80.3674 121.905 80.1705 121.808 79.8869 121.808C79.6112 121.808 79.4129 121.905 79.2921 122.1C79.1739 122.291 79.1149 122.509 79.1149 122.753ZM74.2937 118.563V118.137C74.2937 117.843 74.3541 117.574 74.4749 117.33C74.5983 117.083 74.7768 116.886 75.0106 116.739C75.2469 116.589 75.5331 116.514 75.8692 116.514C76.2106 116.514 76.4968 116.589 76.7279 116.739C76.959 116.886 77.1336 117.083 77.2518 117.33C77.3699 117.574 77.429 117.843 77.429 118.137V118.563C77.429 118.857 77.3686 119.127 77.2478 119.374C77.1297 119.618 76.9537 119.815 76.72 119.965C76.4889 120.112 76.2053 120.185 75.8692 120.185C75.5279 120.185 75.2403 120.112 75.0066 119.965C74.7729 119.815 74.5957 119.618 74.4749 119.374C74.3541 119.127 74.2937 118.857 74.2937 118.563ZM75.0972 118.137V118.563C75.0972 118.807 75.155 119.026 75.2705 119.22C75.3861 119.412 75.5856 119.508 75.8692 119.508C76.1449 119.508 76.3393 119.412 76.4522 119.22C76.5677 119.026 76.6255 118.807 76.6255 118.563V118.137C76.6255 117.893 76.5703 117.675 76.4601 117.483C76.3498 117.289 76.1528 117.192 75.8692 117.192C75.5935 117.192 75.3952 117.289 75.2745 117.483C75.1563 117.675 75.0972 117.893 75.0972 118.137ZM74.593 124.691L80.139 116.625H81.037L75.4911 124.691H74.593ZM88.8045 124.817C88.2583 124.817 87.7791 124.687 87.3668 124.428C86.9572 124.168 86.6368 123.804 86.4057 123.336C86.1773 122.869 86.0631 122.323 86.0631 121.698C86.0631 121.068 86.1773 120.518 86.4057 120.047C86.6368 119.577 86.9572 119.212 87.3668 118.952C87.7791 118.692 88.2583 118.563 88.8045 118.563C89.3507 118.563 89.8286 118.692 90.2383 118.952C90.6505 119.212 90.9709 119.577 91.1994 120.047C91.4304 120.518 91.546 121.068 91.546 121.698C91.546 122.323 91.4304 122.869 91.1994 123.336C90.9709 123.804 90.6505 124.168 90.2383 124.428C89.8286 124.687 89.3507 124.817 88.8045 124.817ZM88.8045 123.982C89.2194 123.982 89.5608 123.876 89.8286 123.663C90.0965 123.451 90.2947 123.171 90.4234 122.824C90.5521 122.478 90.6164 122.102 90.6164 121.698C90.6164 121.293 90.5521 120.917 90.4234 120.567C90.2947 120.218 90.0965 119.936 89.8286 119.721C89.5608 119.505 89.2194 119.398 88.8045 119.398C88.3896 119.398 88.0482 119.505 87.7804 119.721C87.5126 119.936 87.3143 120.218 87.1856 120.567C87.057 120.917 86.9926 121.293 86.9926 121.698C86.9926 122.102 87.057 122.478 87.1856 122.824C87.3143 123.171 87.5126 123.451 87.7804 123.663C88.0482 123.876 88.3896 123.982 88.8045 123.982ZM95.6592 118.641V119.429H92.3978V118.641H95.6592ZM93.3746 124.691V117.806C93.3746 117.46 93.456 117.171 93.6188 116.94C93.7816 116.709 93.993 116.535 94.253 116.42C94.5129 116.304 94.7873 116.246 95.0762 116.246C95.3047 116.246 95.4911 116.265 95.6355 116.302C95.7799 116.338 95.8876 116.372 95.9585 116.404L95.6907 117.208C95.6434 117.192 95.5777 117.172 95.4937 117.148C95.4123 117.125 95.3047 117.113 95.1707 117.113C94.8635 117.113 94.6416 117.19 94.5051 117.345C94.3711 117.5 94.3042 117.727 94.3042 118.027V124.691H93.3746ZM102.713 118.641V119.429H99.5774V118.641H102.713ZM100.491 117.192H101.421V122.958C101.421 123.221 101.459 123.418 101.535 123.549C101.614 123.678 101.714 123.764 101.834 123.809C101.958 123.851 102.088 123.872 102.224 123.872C102.327 123.872 102.411 123.867 102.476 123.856C102.542 123.843 102.595 123.833 102.634 123.825L102.823 124.66C102.76 124.684 102.672 124.707 102.559 124.731C102.446 124.757 102.303 124.77 102.13 124.77C101.867 124.77 101.61 124.714 101.358 124.601C101.108 124.488 100.901 124.316 100.735 124.085C100.573 123.854 100.491 123.562 100.491 123.21V117.192ZM106.504 124.817C105.958 124.817 105.478 124.687 105.066 124.428C104.657 124.168 104.336 123.804 104.105 123.336C103.877 122.869 103.762 122.323 103.762 121.698C103.762 121.068 103.877 120.518 104.105 120.047C104.336 119.577 104.657 119.212 105.066 118.952C105.478 118.692 105.958 118.563 106.504 118.563C107.05 118.563 107.528 118.692 107.938 118.952C108.35 119.212 108.67 119.577 108.899 120.047C109.13 120.518 109.245 121.068 109.245 121.698C109.245 122.323 109.13 122.869 108.899 123.336C108.67 123.804 108.35 124.168 107.938 124.428C107.528 124.687 107.05 124.817 106.504 124.817ZM106.504 123.982C106.919 123.982 107.26 123.876 107.528 123.663C107.796 123.451 107.994 123.171 108.123 122.824C108.251 122.478 108.316 122.102 108.316 121.698C108.316 121.293 108.251 120.917 108.123 120.567C107.994 120.218 107.796 119.936 107.528 119.721C107.26 119.505 106.919 119.398 106.504 119.398C106.089 119.398 105.748 119.505 105.48 119.721C105.212 119.936 105.014 120.218 104.885 120.567C104.756 120.917 104.692 121.293 104.692 121.698C104.692 122.102 104.756 122.478 104.885 122.824C105.014 123.171 105.212 123.451 105.48 123.663C105.748 123.876 106.089 123.982 106.504 123.982ZM113.295 118.641V119.429H110.16V118.641H113.295ZM111.074 117.192H112.004V122.958C112.004 123.221 112.042 123.418 112.118 123.549C112.197 123.678 112.296 123.764 112.417 123.809C112.541 123.851 112.671 123.872 112.807 123.872C112.909 123.872 112.994 123.867 113.059 123.856C113.125 123.843 113.177 123.833 113.217 123.825L113.406 124.66C113.343 124.684 113.255 124.707 113.142 124.731C113.029 124.757 112.886 124.77 112.713 124.77C112.45 124.77 112.193 124.714 111.941 124.601C111.691 124.488 111.484 124.316 111.318 124.085C111.155 123.854 111.074 123.562 111.074 123.21V117.192ZM116.474 124.833C116.091 124.833 115.743 124.761 115.43 124.617C115.118 124.47 114.87 124.258 114.686 123.982C114.502 123.704 114.41 123.368 114.41 122.974C114.41 122.627 114.478 122.346 114.615 122.131C114.752 121.913 114.934 121.742 115.163 121.619C115.391 121.496 115.643 121.404 115.919 121.343C116.197 121.28 116.477 121.23 116.758 121.194C117.125 121.146 117.423 121.111 117.652 121.087C117.883 121.061 118.051 121.018 118.156 120.957C118.264 120.897 118.318 120.792 118.318 120.642V120.611C118.318 120.222 118.211 119.92 117.999 119.705C117.788 119.489 117.469 119.382 117.041 119.382C116.598 119.382 116.25 119.479 115.998 119.673C115.745 119.868 115.568 120.075 115.466 120.296L114.584 119.981C114.741 119.613 114.951 119.327 115.214 119.122C115.479 118.914 115.768 118.77 116.08 118.689C116.395 118.605 116.705 118.563 117.01 118.563C117.204 118.563 117.427 118.586 117.679 118.633C117.934 118.678 118.18 118.771 118.416 118.913C118.655 119.055 118.853 119.269 119.011 119.555C119.168 119.841 119.247 120.225 119.247 120.705V124.691H118.318V123.872H118.27C118.207 124.003 118.102 124.144 117.955 124.294C117.808 124.443 117.613 124.571 117.368 124.676C117.124 124.781 116.826 124.833 116.474 124.833ZM116.616 123.998C116.984 123.998 117.293 123.926 117.546 123.782C117.8 123.637 117.992 123.451 118.121 123.222C118.252 122.994 118.318 122.753 118.318 122.501V121.651C118.278 121.698 118.192 121.741 118.058 121.781C117.926 121.817 117.774 121.85 117.601 121.879C117.43 121.905 117.263 121.929 117.1 121.95C116.94 121.968 116.81 121.984 116.711 121.997C116.469 122.029 116.243 122.08 116.033 122.151C115.826 122.219 115.658 122.323 115.529 122.462C115.403 122.599 115.34 122.785 115.34 123.021C115.34 123.344 115.459 123.589 115.698 123.754C115.94 123.917 116.246 123.998 116.616 123.998ZM121.873 116.625V124.691H120.944V116.625H121.873ZM127.026 120.658C127.026 119.665 127.155 118.753 127.412 117.92C127.672 117.085 128.043 116.317 128.523 115.616H129.343C129.153 115.876 128.976 116.197 128.811 116.577C128.648 116.955 128.505 117.372 128.381 117.826C128.258 118.278 128.161 118.745 128.09 119.228C128.022 119.711 127.988 120.188 127.988 120.658C127.988 121.283 128.048 121.917 128.169 122.56C128.29 123.204 128.452 123.801 128.657 124.353C128.862 124.904 129.09 125.353 129.343 125.7H128.523C128.043 124.999 127.672 124.232 127.412 123.399C127.155 122.564 127.026 121.651 127.026 120.658ZM133.078 125.7V115.616H133.724V125.7H133.078ZM135.252 118.641C135.205 118.242 135.013 117.932 134.677 117.712C134.341 117.491 133.928 117.381 133.44 117.381C133.083 117.381 132.77 117.439 132.502 117.554C132.237 117.67 132.03 117.829 131.88 118.031C131.733 118.233 131.66 118.463 131.66 118.72C131.66 118.935 131.711 119.121 131.813 119.275C131.918 119.428 132.052 119.555 132.215 119.658C132.378 119.757 132.548 119.84 132.727 119.906C132.906 119.969 133.07 120.02 133.219 120.059L134.039 120.28C134.249 120.335 134.482 120.411 134.74 120.508C135 120.605 135.248 120.738 135.484 120.906C135.723 121.072 135.92 121.284 136.075 121.544C136.23 121.804 136.307 122.123 136.307 122.501C136.307 122.937 136.193 123.331 135.965 123.683C135.739 124.035 135.408 124.315 134.972 124.522C134.539 124.729 134.012 124.833 133.393 124.833C132.815 124.833 132.315 124.74 131.892 124.554C131.472 124.367 131.141 124.107 130.899 123.774C130.66 123.44 130.525 123.053 130.494 122.612H131.502C131.528 122.916 131.631 123.168 131.809 123.368C131.99 123.565 132.219 123.712 132.495 123.809C132.773 123.904 133.072 123.951 133.393 123.951C133.766 123.951 134.1 123.891 134.397 123.77C134.694 123.646 134.929 123.476 135.102 123.258C135.275 123.037 135.362 122.78 135.362 122.486C135.362 122.218 135.287 122 135.138 121.832C134.988 121.664 134.791 121.527 134.547 121.422C134.303 121.317 134.039 121.225 133.755 121.146L132.762 120.863C132.132 120.682 131.633 120.423 131.266 120.087C130.898 119.751 130.714 119.311 130.714 118.767C130.714 118.316 130.836 117.922 131.081 117.586C131.327 117.247 131.658 116.984 132.073 116.798C132.491 116.609 132.957 116.514 133.471 116.514C133.991 116.514 134.454 116.608 134.858 116.794C135.262 116.978 135.583 117.23 135.819 117.55C136.058 117.871 136.184 118.234 136.197 118.641H135.252ZM140.356 124.802C139.815 124.802 139.337 124.706 138.922 124.514C138.51 124.32 138.188 124.053 137.957 123.715C137.726 123.373 137.612 122.985 137.614 122.549C137.612 122.207 137.678 121.892 137.815 121.603C137.952 121.312 138.138 121.069 138.374 120.875C138.613 120.678 138.88 120.553 139.174 120.5V120.453C138.788 120.353 138.481 120.137 138.252 119.803C138.024 119.467 137.911 119.085 137.914 118.657C137.911 118.247 138.015 117.881 138.225 117.558C138.435 117.235 138.724 116.98 139.091 116.794C139.461 116.608 139.883 116.514 140.356 116.514C140.823 116.514 141.241 116.608 141.608 116.794C141.976 116.98 142.265 117.235 142.475 117.558C142.687 117.881 142.795 118.247 142.798 118.657C142.795 119.085 142.678 119.467 142.447 119.803C142.219 120.137 141.915 120.353 141.537 120.453V120.5C141.829 120.553 142.091 120.678 142.325 120.875C142.559 121.069 142.745 121.312 142.884 121.603C143.024 121.892 143.094 122.207 143.097 122.549C143.094 122.985 142.976 123.373 142.743 123.715C142.511 124.053 142.19 124.32 141.778 124.514C141.368 124.706 140.894 124.802 140.356 124.802ZM140.356 123.935C140.721 123.935 141.036 123.876 141.301 123.758C141.566 123.64 141.771 123.473 141.915 123.258C142.06 123.042 142.133 122.79 142.136 122.501C142.133 122.197 142.055 121.928 141.9 121.694C141.745 121.46 141.533 121.276 141.266 121.142C141 121.009 140.697 120.942 140.356 120.942C140.012 120.942 139.704 121.009 139.434 121.142C139.166 121.276 138.955 121.46 138.8 121.694C138.647 121.928 138.573 122.197 138.575 122.501C138.573 122.79 138.642 123.042 138.784 123.258C138.928 123.473 139.135 123.64 139.402 123.758C139.67 123.876 139.988 123.935 140.356 123.935ZM140.356 120.107C140.644 120.107 140.9 120.049 141.124 119.933C141.35 119.818 141.527 119.656 141.655 119.449C141.784 119.241 141.85 118.998 141.852 118.72C141.85 118.447 141.785 118.209 141.659 118.007C141.533 117.802 141.359 117.645 141.136 117.534C140.912 117.422 140.652 117.365 140.356 117.365C140.054 117.365 139.79 117.422 139.564 117.534C139.338 117.645 139.163 117.802 139.04 118.007C138.917 118.209 138.856 118.447 138.859 118.72C138.856 118.998 138.918 119.241 139.044 119.449C139.173 119.656 139.35 119.818 139.576 119.933C139.802 120.049 140.062 120.107 140.356 120.107ZM147.128 124.802C146.665 124.802 146.249 124.71 145.879 124.526C145.509 124.342 145.212 124.09 144.989 123.77C144.766 123.449 144.643 123.084 144.622 122.675H145.568C145.605 123.04 145.77 123.342 146.064 123.581C146.361 123.817 146.715 123.935 147.128 123.935C147.458 123.935 147.753 123.858 148.01 123.703C148.27 123.548 148.473 123.335 148.62 123.065C148.77 122.792 148.845 122.483 148.845 122.139C148.845 121.787 148.767 121.473 148.613 121.198C148.46 120.919 148.25 120.7 147.982 120.54C147.714 120.38 147.409 120.298 147.065 120.296C146.818 120.293 146.564 120.331 146.304 120.41C146.044 120.486 145.83 120.584 145.662 120.705L144.748 120.595L145.237 116.625H149.428V117.491H146.056L145.773 119.87H145.82C145.985 119.739 146.193 119.63 146.442 119.543C146.692 119.457 146.952 119.413 147.222 119.413C147.716 119.413 148.156 119.531 148.542 119.768C148.93 120.002 149.235 120.322 149.455 120.729C149.679 121.136 149.79 121.601 149.79 122.123C149.79 122.638 149.675 123.097 149.444 123.502C149.215 123.904 148.9 124.221 148.498 124.455C148.097 124.686 147.64 124.802 147.128 124.802ZM154.191 116.625V124.691H153.214V117.649H153.167L151.197 118.956V117.964L153.214 116.625H154.191ZM157.437 123.589L157.374 124.014C157.329 124.313 157.261 124.634 157.169 124.975C157.079 125.316 156.986 125.638 156.889 125.94C156.792 126.242 156.712 126.482 156.649 126.661H155.94C155.974 126.493 156.019 126.271 156.074 125.995C156.129 125.719 156.184 125.411 156.239 125.07C156.297 124.731 156.344 124.384 156.381 124.03L156.428 123.589H157.437ZM161.54 124.802C161.209 124.796 160.878 124.733 160.547 124.613C160.216 124.492 159.914 124.288 159.641 124.002C159.368 123.713 159.149 123.323 158.984 122.832C158.818 122.339 158.735 121.719 158.735 120.973C158.735 120.259 158.802 119.626 158.936 119.075C159.07 118.52 159.265 118.054 159.519 117.676C159.774 117.295 160.081 117.007 160.441 116.81C160.803 116.613 161.212 116.514 161.666 116.514C162.118 116.514 162.519 116.605 162.871 116.786C163.226 116.965 163.515 117.214 163.738 117.534C163.961 117.855 164.105 118.224 164.171 118.641H163.21C163.121 118.279 162.947 117.978 162.69 117.739C162.433 117.5 162.091 117.381 161.666 117.381C161.041 117.381 160.549 117.653 160.189 118.196C159.832 118.74 159.652 119.503 159.649 120.485H159.712C159.859 120.261 160.034 120.071 160.236 119.914C160.441 119.753 160.667 119.63 160.914 119.543C161.16 119.457 161.422 119.413 161.697 119.413C162.16 119.413 162.582 119.529 162.966 119.76C163.349 119.988 163.656 120.305 163.887 120.709C164.119 121.111 164.234 121.572 164.234 122.092C164.234 122.591 164.123 123.048 163.899 123.462C163.676 123.875 163.362 124.203 162.958 124.447C162.556 124.689 162.083 124.807 161.54 124.802ZM161.54 123.935C161.871 123.935 162.168 123.852 162.43 123.687C162.695 123.522 162.904 123.3 163.056 123.021C163.211 122.743 163.289 122.433 163.289 122.092C163.289 121.758 163.214 121.455 163.064 121.182C162.917 120.906 162.714 120.687 162.454 120.524C162.196 120.361 161.902 120.28 161.571 120.28C161.322 120.28 161.09 120.33 160.874 120.43C160.659 120.527 160.47 120.661 160.307 120.831C160.147 121.002 160.021 121.198 159.929 121.418C159.837 121.636 159.791 121.866 159.791 122.107C159.791 122.428 159.866 122.727 160.016 123.006C160.168 123.284 160.375 123.508 160.638 123.679C160.903 123.85 161.204 123.935 161.54 123.935ZM168.351 116.514C168.682 116.517 169.013 116.58 169.344 116.703C169.675 116.827 169.977 117.032 170.25 117.318C170.523 117.601 170.742 117.989 170.908 118.48C171.073 118.971 171.156 119.587 171.156 120.327C171.156 121.044 171.087 121.681 170.951 122.237C170.817 122.792 170.623 123.259 170.368 123.64C170.116 124.02 169.809 124.309 169.446 124.506C169.086 124.703 168.679 124.802 168.225 124.802C167.774 124.802 167.37 124.712 167.016 124.534C166.664 124.353 166.375 124.102 166.149 123.782C165.926 123.459 165.783 123.084 165.72 122.659H166.681C166.768 123.029 166.94 123.335 167.197 123.577C167.457 123.816 167.8 123.935 168.225 123.935C168.848 123.935 169.339 123.663 169.698 123.12C170.061 122.576 170.242 121.808 170.242 120.816H170.179C170.032 121.036 169.857 121.227 169.655 121.387C169.453 121.547 169.228 121.67 168.981 121.757C168.735 121.844 168.472 121.887 168.194 121.887C167.732 121.887 167.307 121.773 166.921 121.544C166.538 121.313 166.231 120.997 166 120.595C165.771 120.191 165.657 119.728 165.657 119.208C165.657 118.715 165.767 118.263 165.988 117.854C166.211 117.441 166.524 117.113 166.925 116.869C167.33 116.625 167.805 116.506 168.351 116.514ZM168.351 117.381C168.02 117.381 167.722 117.464 167.457 117.629C167.195 117.792 166.986 118.012 166.831 118.291C166.679 118.566 166.602 118.872 166.602 119.208C166.602 119.545 166.676 119.851 166.823 120.126C166.973 120.399 167.176 120.617 167.433 120.78C167.693 120.94 167.989 121.02 168.32 121.02C168.569 121.02 168.802 120.972 169.017 120.875C169.232 120.775 169.42 120.64 169.58 120.469C169.743 120.296 169.87 120.1 169.962 119.882C170.054 119.661 170.1 119.432 170.1 119.193C170.1 118.878 170.024 118.582 169.872 118.306C169.722 118.031 169.515 117.808 169.249 117.637C168.987 117.466 168.687 117.381 168.351 117.381ZM175.336 124.802C174.742 124.802 174.237 124.64 173.819 124.317C173.402 123.992 173.083 123.52 172.862 122.903C172.642 122.283 172.531 121.535 172.531 120.658C172.531 119.786 172.642 119.042 172.862 118.425C173.085 117.805 173.406 117.332 173.823 117.007C174.243 116.678 174.748 116.514 175.336 116.514C175.924 116.514 176.427 116.678 176.844 117.007C177.265 117.332 177.585 117.805 177.806 118.425C178.029 119.042 178.14 119.786 178.14 120.658C178.14 121.535 178.03 122.283 177.809 122.903C177.589 123.52 177.27 123.992 176.852 124.317C176.435 124.64 175.929 124.802 175.336 124.802ZM175.336 123.935C175.924 123.935 176.381 123.652 176.707 123.084C177.032 122.517 177.195 121.708 177.195 120.658C177.195 119.959 177.12 119.365 176.97 118.874C176.823 118.383 176.611 118.008 176.332 117.751C176.057 117.494 175.724 117.365 175.336 117.365C174.753 117.365 174.297 117.653 173.969 118.228C173.641 118.8 173.477 119.61 173.477 120.658C173.477 121.356 173.55 121.95 173.697 122.438C173.844 122.927 174.056 123.298 174.331 123.553C174.61 123.808 174.945 123.935 175.336 123.935ZM181.638 120.658C181.638 121.651 181.508 122.564 181.248 123.399C180.991 124.232 180.622 124.999 180.141 125.7H179.322C179.511 125.44 179.687 125.119 179.85 124.739C180.015 124.361 180.16 123.946 180.283 123.494C180.407 123.04 180.502 122.571 180.571 122.088C180.642 121.602 180.677 121.125 180.677 120.658C180.677 120.033 180.617 119.399 180.496 118.756C180.375 118.112 180.212 117.515 180.007 116.963C179.803 116.412 179.574 115.963 179.322 115.616H180.141C180.622 116.317 180.991 117.085 181.248 117.92C181.508 118.753 181.638 119.665 181.638 120.658Z" fill="#5F6870"/>
<path d="M67.2881 105.24V80.0308H68.9031V105.24H67.2881ZM72.7238 87.5934C72.6056 86.5956 72.1264 85.8209 71.2861 85.2695C70.4458 84.7181 69.4151 84.4423 68.1941 84.4423C67.3013 84.4423 66.52 84.5868 65.8504 84.8756C65.1874 85.1645 64.6688 85.5616 64.2946 86.0671C63.9269 86.5726 63.7431 87.147 63.7431 87.7904C63.7431 88.3287 63.8711 88.7915 64.1272 89.1788C64.3898 89.5596 64.7246 89.878 65.1316 90.134C65.5386 90.3835 65.9653 90.5903 66.4117 90.7544C66.8581 90.912 67.2684 91.04 67.6426 91.1384L69.6908 91.6899C70.216 91.8277 70.8003 92.0181 71.4436 92.261C72.0936 92.5039 72.7139 92.8354 73.3048 93.2556C73.9022 93.6692 74.3945 94.2009 74.7818 94.8508C75.1692 95.5007 75.3628 96.2984 75.3628 97.2437C75.3628 98.3335 75.0773 99.3182 74.5061 100.198C73.9416 101.078 73.1144 101.777 72.0246 102.295C70.9414 102.814 69.6252 103.073 68.0759 103.073C66.6316 103.073 65.381 102.84 64.3241 102.374C63.2737 101.908 62.4466 101.258 61.8426 100.424C61.2452 99.5906 60.9071 98.6223 60.8284 97.5194H63.3492C63.4149 98.2809 63.6709 98.9112 64.1173 99.4101C64.5703 99.9024 65.1414 100.27 65.8307 100.513C66.5266 100.749 67.275 100.867 68.0759 100.867C69.0081 100.867 69.8451 100.716 70.5869 100.415C71.3288 100.106 71.9163 99.6792 72.3496 99.1344C72.7829 98.5829 72.9995 97.9396 72.9995 97.2043C72.9995 96.5347 72.8124 95.9898 72.4382 95.5697C72.064 95.1495 71.5717 94.8082 70.9611 94.5456C70.3506 94.283 69.6908 94.0532 68.9818 93.8563L66.5003 93.1473C64.9248 92.6943 63.6775 92.0477 62.7584 91.2074C61.8393 90.3671 61.3798 89.2675 61.3798 87.9086C61.3798 86.7794 61.6851 85.7947 62.2956 84.9544C62.9127 84.1075 63.7398 83.4511 64.7771 82.9849C65.8209 82.5123 66.9861 82.276 68.2728 82.276C69.5727 82.276 70.7281 82.509 71.7391 82.9751C72.75 83.4346 73.5509 84.0649 74.1418 84.8658C74.7392 85.6667 75.0543 86.5759 75.0871 87.5934H72.7238ZM85.7196 102.994C84.8925 102.981 84.0653 102.824 83.2381 102.522C82.411 102.22 81.656 101.711 80.9733 100.995C80.2905 100.273 79.7424 99.2985 79.3288 98.0709C78.9152 96.8367 78.7084 95.2874 78.7084 93.423C78.7084 91.6374 78.8758 90.0552 79.2106 88.6766C79.5454 87.2915 80.0312 86.1262 80.668 85.1809C81.3048 84.229 82.0729 83.5069 82.9723 83.0145C83.8782 82.5221 84.899 82.276 86.0347 82.276C87.1639 82.276 88.1683 82.5024 89.048 82.9554C89.9342 83.4018 90.6564 84.0255 91.2144 84.8264C91.7724 85.6273 92.1334 86.5496 92.2976 87.5934H89.8948C89.6716 86.6875 89.2384 85.9358 88.595 85.3384C87.9517 84.741 87.0982 84.4423 86.0347 84.4423C84.4723 84.4423 83.2414 85.1218 82.342 86.4807C81.4492 87.8396 80.9995 89.7467 80.993 92.2019H81.1505C81.5182 91.6439 81.9547 91.168 82.4602 90.7741C82.9723 90.3736 83.5368 90.0651 84.1539 89.8485C84.771 89.6318 85.4242 89.5235 86.1135 89.5235C87.2689 89.5235 88.3259 89.8123 89.2843 90.39C90.2428 90.9612 91.0109 91.7522 91.5886 92.7632C92.1663 93.7676 92.4551 94.9198 92.4551 96.2196C92.4551 97.4669 92.1761 98.6092 91.6181 99.6464C91.0601 100.677 90.2756 101.498 89.2646 102.108C88.2602 102.712 87.0785 103.008 85.7196 102.994ZM85.7196 100.828C86.5468 100.828 87.2886 100.621 87.9451 100.208C88.6081 99.7941 89.13 99.2394 89.5108 98.5435C89.8981 97.8477 90.0918 97.073 90.0918 96.2196C90.0918 95.3859 89.9047 94.6276 89.5305 93.9449C89.1629 93.2556 88.6541 92.7074 88.0042 92.3004C87.3608 91.8934 86.6256 91.6899 85.7984 91.6899C85.1747 91.6899 84.5938 91.8146 84.0555 92.0641C83.5171 92.307 83.0445 92.6418 82.6375 93.0685C82.237 93.4952 81.9219 93.9843 81.6921 94.5357C81.4624 95.0806 81.3475 95.655 81.3475 96.259C81.3475 97.0599 81.5346 97.8083 81.9088 98.5041C82.2895 99.2 82.8081 99.7613 83.4646 100.188C84.1277 100.615 84.8793 100.828 85.7196 100.828ZM95.8549 98.5829V96.5741L104.717 82.5517H106.175V85.6634H105.19L98.4939 96.259V96.4165H110.429V98.5829H95.8549ZM105.348 102.719V97.9724V97.0369V82.5517H107.672V102.719H105.348ZM114.749 102.719L123.769 84.8756V84.7181H113.371V82.5517H126.29V84.8362L117.309 102.719H114.749ZM130 99.9615L129.843 101.025C129.731 101.773 129.56 102.574 129.33 103.428C129.107 104.281 128.874 105.085 128.631 105.84C128.388 106.595 128.188 107.196 128.031 107.642H126.258C126.343 107.222 126.455 106.667 126.593 105.978C126.731 105.289 126.869 104.518 127.007 103.664C127.151 102.817 127.269 101.951 127.361 101.064L127.479 99.9615H130ZM134.266 102.719V100.946L140.923 93.6593C141.704 92.8059 142.348 92.0641 142.853 91.4339C143.359 90.7971 143.733 90.1997 143.976 89.6417C144.225 89.0771 144.35 88.4863 144.35 87.8692C144.35 87.1602 144.179 86.5464 143.838 86.0277C143.503 85.5091 143.043 85.1087 142.459 84.8264C141.875 84.5441 141.218 84.4029 140.49 84.4029C139.715 84.4029 139.039 84.5638 138.461 84.8855C137.89 85.2006 137.447 85.6437 137.132 86.2148C136.823 86.786 136.669 87.4556 136.669 88.2237H134.345C134.345 87.042 134.618 86.0048 135.162 85.1119C135.707 84.2191 136.449 83.5233 137.388 83.0243C138.333 82.5254 139.393 82.276 140.569 82.276C141.75 82.276 142.797 82.5254 143.71 83.0243C144.622 83.5233 145.338 84.1962 145.857 85.043C146.375 85.8899 146.634 86.8319 146.634 87.8692C146.634 88.611 146.5 89.3364 146.231 90.0454C145.968 90.7478 145.509 91.5323 144.852 92.3989C144.202 93.2589 143.3 94.3092 142.144 95.55L137.614 100.395V100.552H146.989V102.719H134.266ZM157.516 102.994C156.163 102.994 154.968 102.755 153.931 102.276C152.901 101.79 152.096 101.124 151.519 100.277C150.941 99.4232 150.655 98.4516 150.662 97.3619C150.655 96.5084 150.823 95.7207 151.164 94.9985C151.506 94.2698 151.972 93.6626 152.562 93.1768C153.16 92.6844 153.826 92.3726 154.561 92.2413V92.1232C153.596 91.8737 152.828 91.3321 152.257 90.4984C151.686 89.6581 151.404 88.7029 151.41 87.6328C151.404 86.6087 151.663 85.6929 152.188 84.8855C152.713 84.078 153.436 83.4412 154.355 82.9751C155.28 82.509 156.334 82.276 157.516 82.276C158.684 82.276 159.728 82.509 160.647 82.9751C161.566 83.4412 162.288 84.078 162.813 84.8855C163.345 85.6929 163.614 86.6087 163.621 87.6328C163.614 88.7029 163.322 89.6581 162.744 90.4984C162.173 91.3321 161.415 91.8737 160.47 92.1232V92.2413C161.198 92.3726 161.855 92.6844 162.439 93.1768C163.023 93.6626 163.49 94.2698 163.838 94.9985C164.185 95.7207 164.363 96.5084 164.369 97.3619C164.363 98.4516 164.067 99.4232 163.483 100.277C162.905 101.124 162.101 101.79 161.07 102.276C160.046 102.755 158.861 102.994 157.516 102.994ZM157.516 100.828C158.428 100.828 159.216 100.68 159.879 100.385C160.542 100.09 161.054 99.6727 161.415 99.1344C161.776 98.5961 161.96 97.9658 161.967 97.2437C161.96 96.4822 161.763 95.8093 161.376 95.225C160.988 94.6408 160.46 94.1812 159.79 93.8464C159.127 93.5116 158.369 93.3442 157.516 93.3442C156.656 93.3442 155.888 93.5116 155.211 93.8464C154.542 94.1812 154.013 94.6408 153.626 95.225C153.245 95.8093 153.058 96.4822 153.065 97.2437C153.058 97.9658 153.232 98.5961 153.587 99.1344C153.948 99.6727 154.463 100.09 155.133 100.385C155.802 100.68 156.597 100.828 157.516 100.828ZM157.516 91.2566C158.238 91.2566 158.878 91.1122 159.436 90.8233C160 90.5345 160.444 90.1307 160.765 89.6121C161.087 89.0935 161.251 88.4863 161.258 87.7904C161.251 87.1076 161.09 86.5135 160.775 86.008C160.46 85.496 160.023 85.1021 159.465 84.8264C158.907 84.5441 158.257 84.4029 157.516 84.4029C156.761 84.4029 156.101 84.5441 155.536 84.8264C154.972 85.1021 154.535 85.496 154.227 86.008C153.918 86.5135 153.767 87.1076 153.774 87.7904C153.767 88.4863 153.921 89.0935 154.236 89.6121C154.558 90.1307 155.001 90.5345 155.566 90.8233C156.13 91.1122 156.78 91.2566 157.516 91.2566ZM167.671 98.5829V96.5741L176.533 82.5517H177.99V85.6634H177.006L170.31 96.259V96.4165H182.244V98.5829H167.671ZM177.163 102.719V97.9724V97.0369V82.5517H179.487V102.719H177.163Z" fill="#DCE1E6"/>
<rect y="54.5352" width="243.097" height="0.924324" fill="#D9DADB"/>
<rect x="157.133" y="27.7285" width="2.77297" height="11.0919" rx="1.38649" fill="#187AC9"/>
<rect x="161.754" y="20.334" width="2.77297" height="18.4865" rx="1.38649" fill="#187AC9"/>
<rect x="166.375" y="22.1836" width="2.77297" height="16.6378" rx="1.38649" fill="#187AC9"/>
<rect x="171" y="15.7129" width="2.77297" height="23.1081" rx="1.38649" fill="#187AC9"/>
<rect x="175.621" y="26.8047" width="2.77297" height="12.0162" rx="1.38649" fill="#187AC9"/>
<rect x="180.242" y="31.4258" width="2.77297" height="7.39459" rx="1.38649" fill="#187AC9"/>
<rect x="184.863" y="18.4863" width="2.77297" height="20.3351" rx="1.38649" fill="#187AC9"/>
<rect x="189.484" y="15.7129" width="2.77297" height="23.1081" rx="1.38649" fill="#187AC9"/>
<rect x="194.105" y="23.1074" width="2.77297" height="15.7135" rx="1.38649" fill="#187AC9"/>
<rect x="198.727" y="17.5625" width="2.77297" height="21.2595" rx="1.38649" fill="#187AC9"/>
<rect x="203.348" y="23.1074" width="2.77297" height="15.7135" rx="1.38649" fill="#187AC9"/>
<rect x="207.973" y="29.5781" width="2.77297" height="9.24324" rx="1.38649" fill="#187AC9"/>
<rect x="212.594" y="31.4258" width="2.77297" height="7.39459" rx="1.38649" fill="#187AC9"/>
<rect x="217.215" y="18.4863" width="2.77297" height="20.3351" rx="1.38649" fill="#187AC9"/>
<rect x="152.512" y="34.1992" width="2.77297" height="4.62162" rx="1.38649" fill="#187AC9"/>
<path d="M24.249 32.4863V23.075H27.429C28.1643 23.075 28.7678 23.2006 29.2396 23.4518C29.7114 23.7 30.0606 24.0416 30.2873 24.4766C30.514 24.9116 30.6274 25.4064 30.6274 25.9609C30.6274 26.5154 30.514 27.0071 30.2873 27.436C30.0606 27.8649 29.7129 28.2019 29.2442 28.447C28.7755 28.689 28.1765 28.81 27.4474 28.81H24.874V27.7807H27.4106C27.9131 27.7807 28.3175 27.7072 28.6238 27.5601C28.9332 27.413 29.1569 27.2047 29.2947 26.9351C29.4357 26.6625 29.5061 26.3377 29.5061 25.9609C29.5061 25.5841 29.4357 25.2548 29.2947 24.9729C29.1538 24.6911 28.9286 24.4735 28.6192 24.3204C28.3098 24.1641 27.9008 24.086 27.3923 24.086H25.3887V32.4863H24.249ZM28.679 28.2586L30.995 32.4863H29.6716L27.3923 28.2586H28.679ZM32.9886 32.4863V23.075H38.6685V24.086H34.1282V27.266H38.3743V28.277H34.1282V31.4753H38.742V32.4863H32.9886ZM41.5708 23.075L44.3647 30.9974H44.475L47.269 23.075H48.4638L45.0081 32.4863H43.8317L40.376 23.075H41.5708ZM50.3919 32.4863V23.075H56.0717V24.086H51.5315V27.266H55.7776V28.277H51.5315V31.4753H56.1453V32.4863H50.3919ZM66.0509 23.075V32.4863H64.948L59.8196 25.097H59.7277V32.4863H58.588V23.075H59.6909L64.8377 30.4828H64.9296V23.075H66.0509ZM74.9697 23.075H76.1093V29.3063C76.1093 29.9497 75.9577 30.5241 75.6544 31.0296C75.3542 31.532 74.9299 31.9288 74.3815 32.2198C73.8331 32.5078 73.1897 32.6518 72.4514 32.6518C71.7131 32.6518 71.0697 32.5078 70.5214 32.2198C69.973 31.9288 69.5472 31.532 69.2439 31.0296C68.9436 30.5241 68.7935 29.9497 68.7935 29.3063V23.075H69.9332V29.2144C69.9332 29.674 70.0343 30.083 70.2365 30.4414C70.4387 30.7968 70.7266 31.0771 71.1004 31.2823C71.4772 31.4845 71.9275 31.5856 72.4514 31.5856C72.9753 31.5856 73.4256 31.4845 73.8025 31.2823C74.1793 31.0771 74.4673 30.7968 74.6664 30.4414C74.8686 30.083 74.9697 29.674 74.9697 29.2144V23.075ZM78.8473 32.4863V23.075H84.5272V24.086H79.987V27.266H84.2331V28.277H79.987V31.4753H84.6007V32.4863H78.8473Z" fill="#DCE1E6"/>
</g>
<defs>
<clipPath id="clip0_1394_3041">
<rect width="243.097" height="157.135" fill="white"/>
</clipPath>
</defs>
</svg>
