<svg width="244" height="158" viewBox="0 0 244 158" fill="none" xmlns="http://www.w3.org/2000/svg">
<g clip-path="url(#clip0_1394_3064)">
<path fill-rule="evenodd" clip-rule="evenodd" d="M0.902344 9.24323C0.902344 4.13833 5.04069 0 10.1456 0L234.756 0C239.861 0 244 4.13834 244 9.24324V147.892C244 152.997 239.861 157.135 234.756 157.135H10.1456C5.04069 157.135 0.902344 152.997 0.902344 147.892L0.902344 9.24323Z" fill="#121212"/>
<path d="M74.4575 124.802C73.9165 124.802 73.4386 124.706 73.0237 124.514C72.6115 124.32 72.2898 124.053 72.0587 123.715C71.8276 123.373 71.7134 122.985 71.716 122.549C71.7134 122.207 71.7804 121.892 71.9169 121.603C72.0534 121.312 72.2399 121.069 72.4762 120.875C72.7152 120.678 72.9817 120.553 73.2758 120.5V120.453C72.8898 120.353 72.5826 120.137 72.3541 119.803C72.1257 119.467 72.0127 119.085 72.0154 118.657C72.0127 118.247 72.1165 117.881 72.3265 117.558C72.5366 117.235 72.8255 116.98 73.1931 116.794C73.5634 116.608 73.9848 116.514 74.4575 116.514C74.9249 116.514 75.3424 116.608 75.71 116.794C76.0777 116.98 76.3665 117.235 76.5766 117.558C76.7893 117.881 76.897 118.247 76.8996 118.657C76.897 119.085 76.7801 119.467 76.549 119.803C76.3206 120.137 76.0173 120.353 75.6391 120.453V120.5C75.9306 120.553 76.1932 120.678 76.4269 120.875C76.6606 121.069 76.8471 121.312 76.9862 121.603C77.1254 121.892 77.1963 122.207 77.1989 122.549C77.1963 122.985 77.0781 123.373 76.8444 123.715C76.6134 124.053 76.2917 124.32 75.8794 124.514C75.4698 124.706 74.9958 124.802 74.4575 124.802ZM74.4575 123.935C74.8225 123.935 75.1376 123.876 75.4028 123.758C75.668 123.64 75.8729 123.473 76.0173 123.258C76.1617 123.042 76.2352 122.79 76.2379 122.501C76.2352 122.197 76.1564 121.928 76.0015 121.694C75.8466 121.46 75.6352 121.276 75.3674 121.142C75.1021 121.009 74.7988 120.942 74.4575 120.942C74.1135 120.942 73.8062 121.009 73.5358 121.142C73.2679 121.276 73.0565 121.46 72.9016 121.694C72.7493 121.928 72.6745 122.197 72.6771 122.501C72.6745 122.79 72.7441 123.042 72.8859 123.258C73.0303 123.473 73.2364 123.64 73.5043 123.758C73.7721 123.876 74.0898 123.935 74.4575 123.935ZM74.4575 120.107C74.7463 120.107 75.0024 120.049 75.2256 119.933C75.4514 119.818 75.6286 119.656 75.7573 119.449C75.886 119.241 75.9516 118.998 75.9543 118.72C75.9516 118.447 75.8873 118.209 75.7612 118.007C75.6352 117.802 75.4606 117.645 75.2374 117.534C75.0142 117.422 74.7542 117.365 74.4575 117.365C74.1555 117.365 73.8916 117.422 73.6658 117.534C73.4399 117.645 73.2653 117.802 73.1419 118.007C73.0185 118.209 72.9581 118.447 72.9607 118.72C72.9581 118.998 73.0198 119.241 73.1458 119.449C73.2745 119.656 73.4518 119.818 73.6776 119.933C73.9034 120.049 74.1634 120.107 74.4575 120.107ZM78.5195 123.037V122.234L82.0644 116.625H82.6474V117.869H82.2535L79.5751 122.107V122.171H84.349V123.037H78.5195ZM82.3165 124.691V122.793V122.419V116.625H83.2461V124.691H82.3165ZM89.9373 123.179V122.753C89.9373 122.459 89.9977 122.19 90.1185 121.946C90.2419 121.699 90.4205 121.502 90.6542 121.355C90.8905 121.205 91.1767 121.131 91.5128 121.131C91.8542 121.131 92.1404 121.205 92.3715 121.355C92.6026 121.502 92.7772 121.699 92.8954 121.946C93.0136 122.19 93.0726 122.459 93.0726 122.753V123.179C93.0726 123.473 93.0122 123.743 92.8914 123.99C92.7733 124.234 92.5973 124.431 92.3636 124.581C92.1326 124.728 91.849 124.802 91.5128 124.802C91.1715 124.802 90.8839 124.728 90.6502 124.581C90.4165 124.431 90.2393 124.234 90.1185 123.99C89.9977 123.743 89.9373 123.473 89.9373 123.179ZM90.7408 122.753V123.179C90.7408 123.423 90.7986 123.642 90.9141 123.837C91.0297 124.028 91.2292 124.124 91.5128 124.124C91.7886 124.124 91.9829 124.028 92.0958 123.837C92.2113 123.642 92.2691 123.423 92.2691 123.179V122.753C92.2691 122.509 92.214 122.291 92.1037 122.1C91.9934 121.905 91.7964 121.808 91.5128 121.808C91.2371 121.808 91.0389 121.905 90.9181 122.1C90.7999 122.291 90.7408 122.509 90.7408 122.753ZM85.9196 118.563V118.137C85.9196 117.843 85.98 117.574 86.1008 117.33C86.2242 117.083 86.4028 116.886 86.6365 116.739C86.8728 116.589 87.1591 116.514 87.4952 116.514C87.8366 116.514 88.1228 116.589 88.3539 116.739C88.5849 116.886 88.7596 117.083 88.8777 117.33C88.9959 117.574 89.055 117.843 89.055 118.137V118.563C89.055 118.857 88.9946 119.127 88.8738 119.374C88.7556 119.618 88.5797 119.815 88.346 119.965C88.1149 120.112 87.8313 120.185 87.4952 120.185C87.1538 120.185 86.8663 120.112 86.6326 119.965C86.3989 119.815 86.2216 119.618 86.1008 119.374C85.98 119.127 85.9196 118.857 85.9196 118.563ZM86.7232 118.137V118.563C86.7232 118.807 86.7809 119.026 86.8965 119.22C87.012 119.412 87.2116 119.508 87.4952 119.508C87.7709 119.508 87.9652 119.412 88.0781 119.22C88.1937 119.026 88.2514 118.807 88.2514 118.563V118.137C88.2514 117.893 88.1963 117.675 88.086 117.483C87.9757 117.289 87.7788 117.192 87.4952 117.192C87.2195 117.192 87.0212 117.289 86.9004 117.483C86.7822 117.675 86.7232 117.893 86.7232 118.137ZM86.219 124.691L91.7649 116.625H92.663L87.117 124.691H86.219ZM100.43 124.817C99.8843 124.817 99.405 124.687 98.9928 124.428C98.5831 124.168 98.2628 123.804 98.0317 123.336C97.8032 122.869 97.689 122.323 97.689 121.698C97.689 121.068 97.8032 120.518 98.0317 120.047C98.2628 119.577 98.5831 119.212 98.9928 118.952C99.405 118.692 99.8843 118.563 100.43 118.563C100.977 118.563 101.455 118.692 101.864 118.952C102.276 119.212 102.597 119.577 102.825 120.047C103.056 120.518 103.172 121.068 103.172 121.698C103.172 122.323 103.056 122.869 102.825 123.336C102.597 123.804 102.276 124.168 101.864 124.428C101.455 124.687 100.977 124.817 100.43 124.817ZM100.43 123.982C100.845 123.982 101.187 123.876 101.455 123.663C101.722 123.451 101.921 123.171 102.049 122.824C102.178 122.478 102.242 122.102 102.242 121.698C102.242 121.293 102.178 120.917 102.049 120.567C101.921 120.218 101.722 119.936 101.455 119.721C101.187 119.505 100.845 119.398 100.43 119.398C100.016 119.398 99.6742 119.505 99.4064 119.721C99.1385 119.936 98.9403 120.218 98.8116 120.567C98.6829 120.917 98.6186 121.293 98.6186 121.698C98.6186 122.102 98.6829 122.478 98.8116 122.824C98.9403 123.171 99.1385 123.451 99.4064 123.663C99.6742 123.876 100.016 123.982 100.43 123.982ZM107.285 118.641V119.429H104.024V118.641H107.285ZM105.001 124.691V117.806C105.001 117.46 105.082 117.171 105.245 116.94C105.408 116.709 105.619 116.535 105.879 116.42C106.139 116.304 106.413 116.246 106.702 116.246C106.931 116.246 107.117 116.265 107.261 116.302C107.406 116.338 107.514 116.372 107.584 116.404L107.317 117.208C107.269 117.192 107.204 117.172 107.12 117.148C107.038 117.125 106.931 117.113 106.797 117.113C106.489 117.113 106.268 117.19 106.131 117.345C105.997 117.5 105.93 117.727 105.93 118.027V124.691H105.001ZM114.339 118.641V119.429H111.203V118.641H114.339ZM112.117 117.192H113.047V122.958C113.047 123.221 113.085 123.418 113.161 123.549C113.24 123.678 113.339 123.764 113.46 123.809C113.584 123.851 113.714 123.872 113.85 123.872C113.953 123.872 114.037 123.867 114.102 123.856C114.168 123.843 114.22 123.833 114.26 123.825L114.449 124.66C114.386 124.684 114.298 124.707 114.185 124.731C114.072 124.757 113.929 124.77 113.756 124.77C113.493 124.77 113.236 124.714 112.984 124.601C112.734 124.488 112.527 124.316 112.361 124.085C112.199 123.854 112.117 123.562 112.117 123.21V117.192ZM118.13 124.817C117.584 124.817 117.104 124.687 116.692 124.428C116.282 124.168 115.962 123.804 115.731 123.336C115.503 122.869 115.388 122.323 115.388 121.698C115.388 121.068 115.503 120.518 115.731 120.047C115.962 119.577 116.282 119.212 116.692 118.952C117.104 118.692 117.584 118.563 118.13 118.563C118.676 118.563 119.154 118.692 119.564 118.952C119.976 119.212 120.296 119.577 120.525 120.047C120.756 120.518 120.871 121.068 120.871 121.698C120.871 122.323 120.756 122.869 120.525 123.336C120.296 123.804 119.976 124.168 119.564 124.428C119.154 124.687 118.676 124.817 118.13 124.817ZM118.13 123.982C118.545 123.982 118.886 123.876 119.154 123.663C119.422 123.451 119.62 123.171 119.749 122.824C119.877 122.478 119.942 122.102 119.942 121.698C119.942 121.293 119.877 120.917 119.749 120.567C119.62 120.218 119.422 119.936 119.154 119.721C118.886 119.505 118.545 119.398 118.13 119.398C117.715 119.398 117.374 119.505 117.106 119.721C116.838 119.936 116.64 120.218 116.511 120.567C116.382 120.917 116.318 121.293 116.318 121.698C116.318 122.102 116.382 122.478 116.511 122.824C116.64 123.171 116.838 123.451 117.106 123.663C117.374 123.876 117.715 123.982 118.13 123.982ZM124.921 118.641V119.429H121.786V118.641H124.921ZM122.7 117.192H123.63V122.958C123.63 123.221 123.668 123.418 123.744 123.549C123.823 123.678 123.922 123.764 124.043 123.809C124.167 123.851 124.296 123.872 124.433 123.872C124.535 123.872 124.619 123.867 124.685 123.856C124.751 123.843 124.803 123.833 124.843 123.825L125.032 124.66C124.969 124.684 124.881 124.707 124.768 124.731C124.655 124.757 124.512 124.77 124.339 124.77C124.076 124.77 123.819 124.714 123.566 124.601C123.317 124.488 123.11 124.316 122.944 124.085C122.781 123.854 122.7 123.562 122.7 123.21V117.192ZM128.1 124.833C127.717 124.833 127.369 124.761 127.056 124.617C126.744 124.47 126.496 124.258 126.312 123.982C126.128 123.704 126.036 123.368 126.036 122.974C126.036 122.627 126.104 122.346 126.241 122.131C126.378 121.913 126.56 121.742 126.788 121.619C127.017 121.496 127.269 121.404 127.545 121.343C127.823 121.28 128.103 121.23 128.384 121.194C128.751 121.146 129.049 121.111 129.278 121.087C129.509 121.061 129.677 121.018 129.782 120.957C129.89 120.897 129.944 120.792 129.944 120.642V120.611C129.944 120.222 129.837 119.92 129.624 119.705C129.414 119.489 129.095 119.382 128.667 119.382C128.224 119.382 127.876 119.479 127.624 119.673C127.371 119.868 127.194 120.075 127.092 120.296L126.209 119.981C126.367 119.613 126.577 119.327 126.84 119.122C127.105 118.914 127.394 118.77 127.706 118.689C128.021 118.605 128.331 118.563 128.636 118.563C128.83 118.563 129.053 118.586 129.305 118.633C129.56 118.678 129.806 118.771 130.042 118.913C130.281 119.055 130.479 119.269 130.637 119.555C130.794 119.841 130.873 120.225 130.873 120.705V124.691H129.944V123.872H129.896C129.833 124.003 129.728 124.144 129.581 124.294C129.434 124.443 129.238 124.571 128.994 124.676C128.75 124.781 128.452 124.833 128.1 124.833ZM128.242 123.998C128.61 123.998 128.919 123.926 129.172 123.782C129.426 123.637 129.618 123.451 129.747 123.222C129.878 122.994 129.944 122.753 129.944 122.501V121.651C129.904 121.698 129.817 121.741 129.684 121.781C129.552 121.817 129.4 121.85 129.227 121.879C129.056 121.905 128.889 121.929 128.726 121.95C128.566 121.968 128.436 121.984 128.336 121.997C128.095 122.029 127.869 122.08 127.659 122.151C127.452 122.219 127.283 122.323 127.155 122.462C127.029 122.599 126.966 122.785 126.966 123.021C126.966 123.344 127.085 123.589 127.324 123.754C127.566 123.917 127.872 123.998 128.242 123.998ZM133.499 116.625V124.691H132.57V116.625H133.499ZM138.652 120.658C138.652 119.665 138.781 118.753 139.038 117.92C139.298 117.085 139.669 116.317 140.149 115.616H140.968C140.779 115.876 140.602 116.197 140.437 116.577C140.274 116.955 140.131 117.372 140.007 117.826C139.884 118.278 139.787 118.745 139.716 119.228C139.648 119.711 139.613 120.188 139.613 120.658C139.613 121.283 139.674 121.917 139.795 122.56C139.915 123.204 140.078 123.801 140.283 124.353C140.488 124.904 140.716 125.353 140.968 125.7H140.149C139.669 124.999 139.298 124.232 139.038 123.399C138.781 122.564 138.652 121.651 138.652 120.658ZM145.16 116.625V124.691H144.184V117.649H144.136L142.167 118.956V117.964L144.184 116.625H145.16ZM148.406 123.589L148.343 124.014C148.298 124.313 148.23 124.634 148.138 124.975C148.049 125.316 147.956 125.638 147.859 125.94C147.761 126.242 147.681 126.482 147.618 126.661H146.909C146.943 126.493 146.988 126.271 147.043 125.995C147.098 125.719 147.153 125.411 147.209 125.07C147.266 124.731 147.314 124.384 147.35 124.03L147.398 123.589H148.406ZM150.113 124.691V123.982L152.775 121.068C153.088 120.726 153.345 120.43 153.547 120.177C153.749 119.923 153.899 119.684 153.996 119.461C154.096 119.235 154.146 118.998 154.146 118.752C154.146 118.468 154.078 118.222 153.941 118.015C153.807 117.808 153.623 117.647 153.39 117.534C153.156 117.422 152.893 117.365 152.602 117.365C152.292 117.365 152.022 117.429 151.791 117.558C151.562 117.684 151.385 117.861 151.259 118.09C151.135 118.318 151.074 118.586 151.074 118.893H150.144C150.144 118.421 150.253 118.006 150.471 117.649C150.689 117.292 150.986 117.013 151.361 116.814C151.739 116.614 152.163 116.514 152.633 116.514C153.106 116.514 153.525 116.614 153.89 116.814C154.255 117.013 154.541 117.282 154.749 117.621C154.956 117.96 155.06 118.337 155.06 118.752C155.06 119.048 155.006 119.338 154.898 119.622C154.793 119.903 154.609 120.217 154.347 120.563C154.087 120.907 153.726 121.328 153.264 121.824L151.452 123.762V123.825H155.202V124.691H150.113ZM159.507 124.802C159.176 124.796 158.845 124.733 158.514 124.613C158.183 124.492 157.881 124.288 157.608 124.002C157.335 123.713 157.116 123.323 156.95 122.832C156.785 122.339 156.702 121.719 156.702 120.973C156.702 120.259 156.769 119.626 156.903 119.075C157.037 118.52 157.231 118.054 157.486 117.676C157.741 117.295 158.048 117.007 158.408 116.81C158.77 116.613 159.179 116.514 159.633 116.514C160.085 116.514 160.486 116.605 160.838 116.786C161.193 116.965 161.481 117.214 161.705 117.534C161.928 117.855 162.072 118.224 162.138 118.641H161.177C161.088 118.279 160.914 117.978 160.657 117.739C160.4 117.5 160.058 117.381 159.633 117.381C159.008 117.381 158.516 117.653 158.156 118.196C157.799 118.74 157.619 119.503 157.616 120.485H157.679C157.826 120.261 158.001 120.071 158.203 119.914C158.408 119.753 158.634 119.63 158.881 119.543C159.127 119.457 159.389 119.413 159.664 119.413C160.127 119.413 160.549 119.529 160.933 119.76C161.316 119.988 161.623 120.305 161.854 120.709C162.085 121.111 162.201 121.572 162.201 122.092C162.201 122.591 162.089 123.048 161.866 123.462C161.643 123.875 161.329 124.203 160.925 124.447C160.523 124.689 160.05 124.807 159.507 124.802ZM159.507 123.935C159.838 123.935 160.134 123.852 160.397 123.687C160.662 123.522 160.871 123.3 161.023 123.021C161.178 122.743 161.256 122.433 161.256 122.092C161.256 121.758 161.181 121.455 161.031 121.182C160.884 120.906 160.681 120.687 160.421 120.524C160.163 120.361 159.869 120.28 159.538 120.28C159.289 120.28 159.056 120.33 158.841 120.43C158.626 120.527 158.437 120.661 158.274 120.831C158.114 121.002 157.988 121.198 157.896 121.418C157.804 121.636 157.758 121.866 157.758 122.107C157.758 122.428 157.833 122.727 157.982 123.006C158.135 123.284 158.342 123.508 158.605 123.679C158.87 123.85 159.171 123.935 159.507 123.935ZM166.381 124.802C165.788 124.802 165.282 124.64 164.865 124.317C164.447 123.992 164.128 123.52 163.908 122.903C163.687 122.283 163.577 121.535 163.577 120.658C163.577 119.786 163.687 119.042 163.908 118.425C164.131 117.805 164.451 117.332 164.869 117.007C165.289 116.678 165.793 116.514 166.381 116.514C166.969 116.514 167.472 116.678 167.89 117.007C168.31 117.332 168.63 117.805 168.851 118.425C169.074 119.042 169.186 119.786 169.186 120.658C169.186 121.535 169.075 122.283 168.855 122.903C168.634 123.52 168.315 123.992 167.898 124.317C167.48 124.64 166.975 124.802 166.381 124.802ZM166.381 123.935C166.969 123.935 167.426 123.652 167.752 123.084C168.077 122.517 168.24 121.708 168.24 120.658C168.24 119.959 168.165 119.365 168.016 118.874C167.869 118.383 167.656 118.008 167.378 117.751C167.102 117.494 166.77 117.365 166.381 117.365C165.798 117.365 165.343 117.653 165.014 118.228C164.686 118.8 164.522 119.61 164.522 120.658C164.522 121.356 164.596 121.95 164.743 122.438C164.89 122.927 165.101 123.298 165.377 123.553C165.655 123.808 165.99 123.935 166.381 123.935ZM172.683 120.658C172.683 121.651 172.553 122.564 172.293 123.399C172.036 124.232 171.667 124.999 171.187 125.7H170.367C170.556 125.44 170.732 125.119 170.895 124.739C171.061 124.361 171.205 123.946 171.328 123.494C171.452 123.04 171.548 122.571 171.616 122.088C171.687 121.602 171.722 121.125 171.722 120.658C171.722 120.033 171.662 119.399 171.541 118.756C171.42 118.112 171.257 117.515 171.053 116.963C170.848 116.412 170.619 115.963 170.367 115.616H171.187C171.667 116.317 172.036 117.085 172.293 117.92C172.553 118.753 172.683 119.665 172.683 120.658Z" fill="#5F6870"/>
<path d="M96.4938 82.5517V102.719H94.0517V85.1119H93.9335L89.0099 88.3812V85.8997L94.0517 82.5517H96.4938ZM104.608 99.9615L104.45 101.025C104.339 101.773 104.168 102.574 103.938 103.428C103.715 104.281 103.482 105.085 103.239 105.84C102.996 106.595 102.796 107.196 102.638 107.642H100.866C100.951 107.222 101.063 106.667 101.201 105.978C101.339 105.289 101.476 104.518 101.614 103.664C101.759 102.817 101.877 101.951 101.969 101.064L102.087 99.9615H104.608ZM114.748 102.994C113.264 102.994 112.001 102.591 110.957 101.783C109.913 100.969 109.115 99.7908 108.564 98.2481C108.013 96.6988 107.737 94.8279 107.737 92.6352C107.737 90.4557 108.013 88.5946 108.564 87.0518C109.122 85.5026 109.923 84.3209 110.967 83.5069C112.017 82.6863 113.278 82.276 114.748 82.276C116.219 82.276 117.476 82.6863 118.52 83.5069C119.57 84.3209 120.371 85.5026 120.922 87.0518C121.48 88.5946 121.759 90.4557 121.759 92.6352C121.759 94.8279 121.484 96.6988 120.932 98.2481C120.381 99.7908 119.583 100.969 118.539 101.783C117.495 102.591 116.232 102.994 114.748 102.994ZM114.748 100.828C116.219 100.828 117.361 100.119 118.175 98.7011C118.989 97.2831 119.396 95.2611 119.396 92.6352C119.396 90.889 119.209 89.402 118.835 88.1744C118.467 86.9468 117.935 86.0113 117.239 85.368C116.55 84.7246 115.72 84.4029 114.748 84.4029C113.291 84.4029 112.152 85.1218 111.331 86.5595C110.51 87.9906 110.1 90.0159 110.1 92.6352C110.1 94.3814 110.284 95.8651 110.652 97.0861C111.019 98.3072 111.548 99.2361 112.237 99.8729C112.933 100.51 113.77 100.828 114.748 100.828ZM131.803 102.994C130.648 102.994 129.607 102.765 128.682 102.305C127.756 101.846 127.014 101.215 126.456 100.415C125.898 99.6136 125.593 98.7011 125.541 97.677H127.904C127.996 98.5895 128.409 99.3444 129.145 99.9418C129.886 100.533 130.773 100.828 131.803 100.828C132.631 100.828 133.366 100.634 134.009 100.247C134.659 99.8598 135.168 99.328 135.536 98.6519C135.91 97.9691 136.097 97.1978 136.097 96.3378C136.097 95.4581 135.903 94.6736 135.516 93.9843C135.135 93.2884 134.61 92.7402 133.94 92.3398C133.271 91.9393 132.506 91.7358 131.646 91.7293C131.029 91.7227 130.395 91.8179 129.745 92.0148C129.095 92.2052 128.56 92.4514 128.14 92.7534L125.856 92.4777L127.077 82.5517H137.554V84.7181H129.125L128.416 90.6658H128.534C128.948 90.3375 129.466 90.0651 130.09 89.8485C130.714 89.6318 131.364 89.5235 132.04 89.5235C133.274 89.5235 134.374 89.8189 135.339 90.4097C136.31 90.994 137.072 91.7949 137.623 92.8125C138.181 93.83 138.46 94.992 138.46 96.2984C138.46 97.5851 138.171 98.7339 137.594 99.7449C137.022 100.749 136.235 101.544 135.23 102.128C134.226 102.706 133.084 102.994 131.803 102.994ZM148.792 82.276C149.619 82.2825 150.447 82.4401 151.274 82.7486C152.101 83.0572 152.856 83.5692 153.539 84.2848C154.221 84.9938 154.77 85.9621 155.183 87.1897C155.597 88.4173 155.804 89.9568 155.804 91.808C155.804 93.6002 155.633 95.1922 155.291 96.5839C154.957 97.9691 154.471 99.1376 153.834 100.09C153.204 101.041 152.436 101.764 151.53 102.256C150.63 102.748 149.613 102.994 148.477 102.994C147.348 102.994 146.34 102.771 145.454 102.325C144.574 101.872 143.852 101.245 143.288 100.444C142.73 99.6366 142.372 98.7011 142.214 97.6376H144.617C144.834 98.5632 145.264 99.328 145.907 99.932C146.557 100.529 147.414 100.828 148.477 100.828C150.033 100.828 151.261 100.149 152.16 98.7897C153.066 97.4308 153.519 95.5106 153.519 93.0291H153.361C152.994 93.5805 152.557 94.0565 152.052 94.4569C151.546 94.8574 150.985 95.1659 150.368 95.3826C149.751 95.5992 149.094 95.7075 148.398 95.7075C147.243 95.7075 146.183 95.422 145.218 94.8508C144.259 94.2731 143.491 93.4821 142.914 92.4777C142.342 91.4667 142.057 90.3113 142.057 89.0114C142.057 87.7773 142.333 86.6481 142.884 85.624C143.442 84.5933 144.223 83.7727 145.228 83.1622C146.239 82.5517 147.427 82.2563 148.792 82.276ZM148.792 84.4423C147.965 84.4423 147.22 84.6491 146.557 85.0627C145.901 85.4697 145.379 86.0212 144.991 86.717C144.611 87.4063 144.42 88.1711 144.42 89.0114C144.42 89.8517 144.604 90.6165 144.972 91.3058C145.346 91.9886 145.855 92.5335 146.498 92.9405C147.148 93.3409 147.886 93.5412 148.714 93.5412C149.337 93.5412 149.918 93.4197 150.456 93.1768C150.995 92.9273 151.464 92.5893 151.865 92.1625C152.272 91.7293 152.59 91.2402 152.82 90.6953C153.05 90.1439 153.164 89.5694 153.164 88.9721C153.164 88.1843 152.974 87.4457 152.593 86.7564C152.219 86.0671 151.701 85.5091 151.037 85.0824C150.381 84.6557 149.633 84.4423 148.792 84.4423Z" fill="#DCE1E6"/>
<rect x="0.898438" y="54.5352" width="243.097" height="0.924324" fill="#D9DADB"/>
<path fill-rule="evenodd" clip-rule="evenodd" d="M159.882 37.8976L164.504 34.2003L169.125 38.822L173.747 31.4274L178.368 35.1247H182.99L187.612 26.8057L192.233 24.0328L196.855 26.8057L201.476 17.5625L206.098 26.8057L210.72 24.9571L215.341 20.3355L220.887 24.0328V43.4436H154.336V36.049L159.882 37.8976Z" fill="url(#paint0_linear_1394_3064)"/>
<path d="M155.262 36.049L159.883 37.8976L164.505 34.2003L169.127 37.8976L173.748 31.4274L178.37 35.1247H182.991L187.613 26.8057L192.235 24.0328L196.856 26.8057L201.478 17.5625L206.1 26.8057L210.721 24.9571L215.343 20.3355L219.964 24.0328" stroke="#187AC9" stroke-width="1.38649" stroke-linecap="round" stroke-linejoin="round"/>
<path d="M25.5374 32.4863H24.3426L27.7983 23.075H28.9747L32.4304 32.4863H31.2356L28.4233 24.5639H28.3497L25.5374 32.4863ZM25.9785 28.81H30.7945V29.821H25.9785V28.81ZM41.4894 26.0161H40.3497C40.2823 25.6883 40.1644 25.4003 39.9959 25.1521C39.8304 24.904 39.6282 24.6957 39.3893 24.5272C39.1534 24.3556 38.8914 24.2269 38.6035 24.1411C38.3155 24.0554 38.0153 24.0125 37.7028 24.0125C37.133 24.0125 36.6167 24.1565 36.1541 24.4444C35.6946 24.7324 35.3285 25.1567 35.0559 25.7174C34.7863 26.278 34.6515 26.9658 34.6515 27.7807C34.6515 28.5956 34.7863 29.2834 35.0559 29.844C35.3285 30.4046 35.6946 30.8289 36.1541 31.1169C36.6167 31.4049 37.133 31.5489 37.7028 31.5489C38.0153 31.5489 38.3155 31.506 38.6035 31.4202C38.8914 31.3344 39.1534 31.2073 39.3893 31.0388C39.6282 30.8672 39.8304 30.6574 39.9959 30.4092C40.1644 30.158 40.2823 29.87 40.3497 29.5453H41.4894C41.4036 30.0263 41.2473 30.4567 41.0206 30.8366C40.7939 31.2165 40.5121 31.5397 40.1751 31.8062C39.8381 32.0697 39.4597 32.2703 39.04 32.4082C38.6234 32.5461 38.1776 32.615 37.7028 32.615C36.9001 32.615 36.1863 32.4189 35.5613 32.0268C34.9364 31.6347 34.4447 31.0771 34.0862 30.3541C33.7278 29.6311 33.5486 28.7733 33.5486 27.7807C33.5486 26.7881 33.7278 25.9303 34.0862 25.2073C34.4447 24.4843 34.9364 23.9267 35.5613 23.5346C36.1863 23.1424 36.9001 22.9464 37.7028 22.9464C38.1776 22.9464 38.6234 23.0153 39.04 23.1531C39.4597 23.291 39.8381 23.4932 40.1751 23.7597C40.5121 24.0232 40.7939 24.3449 41.0206 24.7248C41.2473 25.1016 41.4036 25.532 41.4894 26.0161ZM51.3663 26.0161H50.2266C50.1592 25.6883 50.0413 25.4003 49.8728 25.1521C49.7073 24.904 49.5051 24.6957 49.2662 24.5272C49.0303 24.3556 48.7684 24.2269 48.4804 24.1411C48.1924 24.0554 47.8922 24.0125 47.5797 24.0125C47.0099 24.0125 46.4937 24.1565 46.0311 24.4444C45.5715 24.7324 45.2054 25.1567 44.9328 25.7174C44.6632 26.278 44.5284 26.9658 44.5284 27.7807C44.5284 28.5956 44.6632 29.2834 44.9328 29.844C45.2054 30.4046 45.5715 30.8289 46.0311 31.1169C46.4937 31.4049 47.0099 31.5489 47.5797 31.5489C47.8922 31.5489 48.1924 31.506 48.4804 31.4202C48.7684 31.3344 49.0303 31.2073 49.2662 31.0388C49.5051 30.8672 49.7073 30.6574 49.8728 30.4092C50.0413 30.158 50.1592 29.87 50.2266 29.5453H51.3663C51.2805 30.0263 51.1242 30.4567 50.8975 30.8366C50.6708 31.2165 50.389 31.5397 50.052 31.8062C49.715 32.0697 49.3367 32.2703 48.9169 32.4082C48.5003 32.5461 48.0545 32.615 47.5797 32.615C46.777 32.615 46.0632 32.4189 45.4383 32.0268C44.8133 31.6347 44.3216 31.0771 43.9631 30.3541C43.6047 29.6311 43.4255 28.7733 43.4255 27.7807C43.4255 26.7881 43.6047 25.9303 43.9631 25.2073C44.3216 24.4843 44.8133 23.9267 45.4383 23.5346C46.0632 23.1424 46.777 22.9464 47.5797 22.9464C48.0545 22.9464 48.5003 23.0153 48.9169 23.1531C49.3367 23.291 49.715 23.4932 50.052 23.7597C50.389 24.0232 50.6708 24.3449 50.8975 24.7248C51.1242 25.1016 51.2805 25.532 51.3663 26.0161ZM61.6108 27.7807C61.6108 28.7733 61.4316 29.6311 61.0732 30.3541C60.7147 31.0771 60.223 31.6347 59.598 32.0268C58.9731 32.4189 58.2593 32.615 57.4566 32.615C56.6539 32.615 55.9401 32.4189 55.3152 32.0268C54.6902 31.6347 54.1985 31.0771 53.8401 30.3541C53.4816 29.6311 53.3024 28.7733 53.3024 27.7807C53.3024 26.7881 53.4816 25.9303 53.8401 25.2073C54.1985 24.4843 54.6902 23.9267 55.3152 23.5346C55.9401 23.1424 56.6539 22.9464 57.4566 22.9464C58.2593 22.9464 58.9731 23.1424 59.598 23.5346C60.223 23.9267 60.7147 24.4843 61.0732 25.2073C61.4316 25.9303 61.6108 26.7881 61.6108 27.7807ZM60.5079 27.7807C60.5079 26.9658 60.3716 26.278 60.0989 25.7174C59.8293 25.1567 59.4632 24.7324 59.0006 24.4444C58.5411 24.1565 58.0264 24.0125 57.4566 24.0125C56.8868 24.0125 56.3706 24.1565 55.908 24.4444C55.4484 24.7324 55.0823 25.1567 54.8097 25.7174C54.5401 26.278 54.4053 26.9658 54.4053 27.7807C54.4053 28.5956 54.5401 29.2834 54.8097 29.844C55.0823 30.4046 55.4484 30.8289 55.908 31.1169C56.3706 31.4049 56.8868 31.5489 57.4566 31.5489C58.0264 31.5489 58.5411 31.4049 59.0006 31.1169C59.4632 30.8289 59.8293 30.4046 60.0989 29.844C60.3716 29.2834 60.5079 28.5956 60.5079 27.7807ZM70.1654 23.075H71.3051V29.3063C71.3051 29.9497 71.1534 30.5241 70.8501 31.0296C70.5499 31.532 70.1256 31.9288 69.5772 32.2198C69.0288 32.5078 68.3855 32.6518 67.6471 32.6518C66.9088 32.6518 66.2655 32.5078 65.7171 32.2198C65.1687 31.9288 64.7429 31.532 64.4396 31.0296C64.1394 30.5241 63.9892 29.9497 63.9892 29.3063V23.075H65.1289V29.2144C65.1289 29.674 65.23 30.083 65.4322 30.4414C65.6344 30.7968 65.9224 31.0771 66.2961 31.2823C66.6729 31.4845 67.1233 31.5856 67.6471 31.5856C68.171 31.5856 68.6214 31.4845 68.9982 31.2823C69.375 31.0771 69.663 30.7968 69.8621 30.4414C70.0643 30.083 70.1654 29.674 70.1654 29.2144V23.075ZM81.5059 23.075V32.4863H80.4031L75.2746 25.097H75.1827V32.4863H74.0431V23.075H75.146L80.2928 30.4828H80.3847V23.075H81.5059ZM83.7339 24.086V23.075H90.7923V24.086H87.8329V32.4863H86.6933V24.086H83.7339ZM98.1602 25.4279C98.105 24.9622 97.8814 24.6007 97.4893 24.3433C97.0971 24.086 96.6161 23.9573 96.0463 23.9573C95.6297 23.9573 95.2651 24.0247 94.9526 24.1595C94.6432 24.2943 94.4012 24.4797 94.2266 24.7156C94.055 24.9515 93.9692 25.2195 93.9692 25.5198C93.9692 25.771 94.029 25.987 94.1484 26.1677C94.271 26.3454 94.4272 26.494 94.6172 26.6135C94.8071 26.7299 95.0062 26.8264 95.2146 26.903C95.4229 26.9765 95.6144 27.0362 95.789 27.0822L96.7448 27.3395C96.9899 27.4039 97.2626 27.4927 97.5628 27.6061C97.8661 27.7194 98.1556 27.8741 98.4313 28.0702C98.7101 28.2632 98.9399 28.5113 99.1206 28.8146C99.3014 29.1179 99.3917 29.4902 99.3917 29.9313C99.3917 30.4399 99.2585 30.8994 98.992 31.3099C98.7285 31.7204 98.3425 32.0467 97.8339 32.2887C97.3284 32.5307 96.7142 32.6518 95.9912 32.6518C95.3172 32.6518 94.7336 32.543 94.2403 32.3255C93.7502 32.108 93.3642 31.8047 93.0823 31.4156C92.8035 31.0265 92.6458 30.5747 92.609 30.06H93.7854C93.816 30.4154 93.9355 30.7095 94.1438 30.9423C94.3552 31.1721 94.6218 31.3436 94.9434 31.457C95.2682 31.5673 95.6174 31.6224 95.9912 31.6224C96.4262 31.6224 96.8168 31.5519 97.163 31.411C97.5092 31.267 97.7834 31.0679 97.9856 30.8136C98.1878 30.5563 98.2889 30.256 98.2889 29.9129C98.2889 29.6004 98.2015 29.3462 98.0269 29.1501C97.8523 28.954 97.6225 28.7947 97.3376 28.6722C97.0527 28.5496 96.7448 28.4424 96.414 28.3505L95.2559 28.0196C94.5207 27.8082 93.9386 27.5065 93.5097 27.1143C93.0808 26.7222 92.8663 26.2091 92.8663 25.5749C92.8663 25.048 93.0088 24.5884 93.2937 24.1963C93.5817 23.8011 93.9677 23.4947 94.4517 23.2772C94.9388 23.0566 95.4826 22.9464 96.0831 22.9464C96.6897 22.9464 97.2289 23.0551 97.7007 23.2726C98.1724 23.4871 98.5462 23.7812 98.8219 24.1549C99.1007 24.5287 99.2478 24.953 99.2631 25.4279H98.1602Z" fill="#DCE1E6"/>
</g>
<defs>
<linearGradient id="paint0_linear_1394_3064" x1="140.471" y1="6.77872" x2="140.471" y2="43.4436" gradientUnits="userSpaceOnUse">
<stop stop-color="#187AC9"/>
<stop offset="1" stop-color="#F0F0F0" stop-opacity="0.01"/>
</linearGradient>
<clipPath id="clip0_1394_3064">
<rect width="243.097" height="157.135" fill="white" transform="translate(0.90625)"/>
</clipPath>
</defs>
</svg>
