<svg width="85" height="27" viewBox="0 0 85 27" fill="none" xmlns="http://www.w3.org/2000/svg">
<path d="M61.8903 1.4886C59.9236 0.776895 57.8446 0.419756 55.7515 0.434004C48.9823 0.434004 44.2016 3.82049 44.1677 8.68174C44.1254 12.2531 47.565 14.2657 50.1669 15.4589C52.8365 16.6858 53.7292 17.4589 53.7207 18.5555C53.7038 20.2235 51.5884 20.9798 49.6211 20.9798C46.9177 20.9798 45.4412 20.6059 43.1693 19.6689L42.3273 19.2782L41.367 24.8747C43.0127 25.5553 45.9785 26.1394 49.0415 26.1898C56.238 26.1898 60.9426 22.8243 60.9976 17.6521C61.0568 14.7993 59.1953 12.6438 55.2776 10.8624C52.8957 9.70692 51.4192 8.93383 51.4192 7.76159C51.4192 6.72379 52.6842 5.61457 55.3284 5.61457C57.0882 5.57229 58.8371 5.90019 60.4603 6.57674L61.0949 6.85824L62.0553 1.45079L61.8903 1.4886ZM79.4563 0.887775H74.1679C72.5221 0.887775 71.2825 1.33735 70.5633 2.95916L60.3926 25.8411H67.5891L69.0275 22.089L77.8106 22.0974C78.0179 22.9756 78.6525 25.8411 78.6525 25.8411H84.9986L79.4563 0.887775ZM34.4328 0.677695H41.2908L37.0008 25.6436H30.1513L34.4328 0.669292V0.677695ZM17.0233 14.4379L17.734 17.9042L24.4355 0.887775H31.6997L20.9071 25.8074H13.6598L7.73681 4.70702C7.64088 4.3591 7.41559 4.06028 7.10643 3.87091C4.9716 2.77571 2.70962 1.94459 0.371094 1.39617L0.46417 0.870966H11.5022C12.9999 0.929789 14.2056 1.39617 14.6075 2.98437L17.0191 14.4505L17.0233 14.4379ZM70.9948 16.9841L73.7279 10.001C73.694 10.0767 74.2906 8.55989 74.6375 7.62293L75.1071 9.77835L76.6936 16.9799H70.9906L70.9948 16.9841Z" fill="#959595"/>
</svg>
