<svg width="104" height="27" viewBox="0 0 104 27" fill="none" xmlns="http://www.w3.org/2000/svg">
<path d="M12.0764 0.433594L0.449219 26.1567H14.3686L16.0942 22.0554H20.0385L21.7641 26.1567H37.0854V23.0264L38.4506 26.1567H46.376L47.7412 22.9603V26.1567H79.6054L83.4799 22.1619L87.1079 26.1567L103.474 26.1898L91.8101 13.367L103.474 0.433594H87.3617L83.5901 4.35459L80.0764 0.433594H45.4123L42.4357 7.07295L39.3893 0.433594H25.499V3.45735L23.9538 0.433594H12.0764ZM14.7697 4.08631H21.5547L29.267 21.5293V4.08631H36.6996L42.6565 16.5928L48.1464 4.08631H55.5419V22.5443H51.0419L51.0052 8.08073L44.4446 22.5443H40.4192L33.8219 8.08073V22.5443H24.5644L22.8093 18.4063H13.3274L11.576 22.5407H6.61592L14.7697 4.08631ZM59.659 4.08631H77.9569L83.5534 10.1298L89.3302 4.08631H94.9267L86.4235 13.3633L94.9267 22.5334H89.0764L83.4799 16.4198L77.6736 22.5334H59.659V4.08631ZM18.0704 7.20931L14.9465 14.5809H21.1907L18.0704 7.20931ZM64.1776 7.90806V11.2776H74.1599V15.0332H64.1776V18.7117H75.3742L80.5768 13.2935L75.5949 7.90483H64.1776V7.90806Z" fill="#959595"/>
</svg>
